<?xml version="1.0" encoding="utf-8"?>
<!-- Generator: Adobe Illustrator 22.0.1, SVG Export Plug-In . SVG Version: 6.00 Build 0)  -->
<svg version="1.1" id="Layer_1" xmlns="http://www.w3.org/2000/svg" xmlns:xlink="http://www.w3.org/1999/xlink" x="0px" y="0px"
	 viewBox="0 0 170 63" style="enable-background:new 0 0 170 63;" xml:space="preserve">
<style type="text/css">
	.st0{fill:#14468A;}
</style>
<title>Group</title>
<desc>Created with Sketch.</desc>
<g id="Page-1">
	<g id="Avaleht" transform="translate(-311.000000, -3425.000000)">
		<g id="Group-203" transform="translate(0.000000, 3338.000000)">
			<g id="Group-201" transform="translate(110.000000, 40.000000)">
				<g id="Group-200" transform="translate(1.000000, 46.000000)">
					<g id="Group-163" transform="translate(1.000000, 0.000000)">
						<g id="Group" transform="translate(199.000000, 1.000000)">
							<polygon id="path10" class="st0" points="70.7,33.1 70.7,20.9 57.9,20.9 57.9,33.1 52.2,33.1 52.2,3.7 57.9,3.7 57.9,15.5 
								70.7,15.5 70.7,3.7 76.4,3.7 76.4,33.1 							"/>
							<polygon id="path12" class="st0" points="81.5,3.7 87.3,3.7 87.3,33.1 81.5,33.1 							"/>
							<polygon id="path16" class="st0" points="105.9,9.1 105.9,33.1 100.1,33.1 100.1,9.1 90.9,9.1 90.9,3.7 115.2,3.7 115.2,9.1 
															"/>
							<path id="path20" class="st0" d="M133.8,12.3c-0.3-1.6-1.6-4.1-5.3-4.1c-2.8,0-4.6,1.8-4.6,3.7c0,1.6,1,2.9,3.2,3.3l4.1,0.8
								c5.3,1,8.2,4.5,8.2,8.7c0,4.5-3.8,9.1-10.6,9.1c-7.8,0-11.2-5-11.7-9.2l5.3-1.4c0.2,2.9,2.3,5.5,6.4,5.5
								c3.1,0,4.8-1.5,4.8-3.6c0-1.7-1.3-3-3.6-3.5l-4.1-0.8c-4.7-1-7.7-4-7.7-8.4c0-5.2,4.7-9.2,10.2-9.2c7.1,0,9.9,4.3,10.5,7.6
								L133.8,12.3z"/>
							<path id="path24" class="st0" d="M151.1,21.1h8.1L155.1,10L151.1,21.1z M161.1,26.4h-11.9l-2.4,6.7h-6l11.3-29.4h6.6
								l11.2,29.4h-6.2L161.1,26.4z"/>
							<polygon id="path26" class="st0" points="52.2,42.3 53.2,42.3 53.2,49.6 52.2,49.6 52.2,42.4 							"/>
							<path id="path30" class="st0" d="M55.9,49.6h-1v-4.9h0.9v0.7c0.4-0.6,0.9-0.8,1.5-0.8c1.2,0,1.8,0.8,1.8,1.9v3.1h-1v-2.9
								c0-0.7-0.3-1.2-1.1-1.2s-1.1,0.6-1.1,1.3C55.9,46.8,55.9,49.6,55.9,49.6z"/>
							<path id="path34" class="st0" d="M61.9,45.5v4h-1v-4H60v-0.9h0.9v-0.8c0-1.1,0.7-1.7,1.6-1.7c0.3,0,0.5,0.1,0.6,0.1v0.9
								c-0.1,0-0.2-0.1-0.4-0.1c-0.3,0-0.8,0.2-0.8,0.8v0.8h1.2v0.9H61.9z"/>
							<path id="path38" class="st0" d="M67.6,47.1c0-1.1-0.7-1.7-1.5-1.7s-1.5,0.6-1.5,1.7c0,1.1,0.7,1.8,1.5,1.8
								C66.9,48.9,67.6,48.3,67.6,47.1 M68.6,47.1c0,1.5-1,2.6-2.5,2.6s-2.5-1.1-2.5-2.6s1-2.6,2.5-2.6
								C67.5,44.5,68.6,45.6,68.6,47.1"/>
							<path id="path42" class="st0" d="M72.5,45.6c-0.1,0-0.3,0-0.4,0c-0.8,0-1.3,0.4-1.3,1.5v2.5h-1v-4.9h0.9v0.9
								c0.4-0.8,1-0.9,1.5-0.9c0.1,0,0.3,0,0.3,0V45.6z"/>
							<path id="path46" class="st0" d="M73.5,49.6v-4.9h0.9v0.7c0.3-0.5,0.9-0.8,1.5-0.8s1.2,0.3,1.5,0.9c0.4-0.7,1-0.9,1.6-0.9
								c0.9,0,1.7,0.6,1.7,1.9v3.2h-0.9v-3.1c0-0.6-0.3-1.1-1-1.1s-1.1,0.5-1.1,1.2v3h-1v-3.1c0-0.6-0.3-1.1-1-1.1s-1.1,0.5-1.1,1.2
								v3h-1.1V49.6z"/>
							<path id="path50" class="st0" d="M85.1,47.5v-0.2l-1.5,0.2c-0.4,0.1-0.7,0.3-0.7,0.7s0.3,0.7,0.8,0.7
								C84.5,48.9,85.1,48.5,85.1,47.5 M83.4,46.8l1.3-0.2c0.3,0,0.4-0.2,0.4-0.4c0-0.5-0.3-0.9-1.1-0.9c-0.7,0-1,0.4-1.1,1L82,46.1
								c0.1-0.9,0.9-1.6,2-1.6c1.5,0,2,0.8,2,1.8v2.5c0,0.4,0,0.7,0.1,0.8h-0.9c0-0.1-0.1-0.3-0.1-0.7c-0.2,0.3-0.7,0.8-1.6,0.8
								c-1,0-1.6-0.7-1.6-1.5C82,47.4,82.6,46.9,83.4,46.8"/>
							<path id="path54" class="st0" d="M88.9,44.7H90v0.9h-1.1v2.5c0,0.4,0.2,0.7,0.7,0.7c0.1,0,0.3,0,0.4,0v0.8
								c-0.1,0-0.3,0.1-0.7,0.1c-0.8,0-1.4-0.5-1.4-1.4v-2.7H87v-0.9h0.3c0.5,0,0.8-0.3,0.8-0.8v-0.8H89v1.6H88.9z"/>
							<path id="path56" class="st0" d="M91.2,44.7h0.9v4.9h-0.9V44.7L91.2,44.7z M91.7,42.1c0.4,0,0.7,0.3,0.7,0.7
								s-0.3,0.7-0.7,0.7c-0.4,0-0.7-0.3-0.7-0.7C91,42.4,91.3,42.1,91.7,42.1L91.7,42.1z"/>
							<path id="path60" class="st0" d="M97.4,47.1c0-1.1-0.7-1.7-1.5-1.7s-1.5,0.6-1.5,1.7c0,1.1,0.7,1.8,1.5,1.8
								C96.7,48.9,97.4,48.3,97.4,47.1 M98.4,47.1c0,1.5-1,2.6-2.5,2.6s-2.5-1.1-2.5-2.6s1-2.6,2.5-2.6S98.4,45.6,98.4,47.1"/>
							<path id="path64" class="st0" d="M100.6,49.6h-1v-4.9h0.9v0.7c0.4-0.6,0.9-0.8,1.5-0.8c1.2,0,1.8,0.8,1.8,1.9v3.1h-1v-2.9
								c0-0.7-0.3-1.2-1.1-1.2c-0.8,0-1.1,0.6-1.1,1.3C100.6,46.8,100.6,49.6,100.6,49.6z"/>
							<polygon id="path68" class="st0" points="110.6,43.3 110.6,49.6 109.6,49.6 109.6,43.3 107.2,43.3 107.2,42.3 113,42.3 
								113,43.3 							"/>
							<path id="path72" class="st0" d="M116.3,46.6c0-0.7-0.5-1.3-1.3-1.3s-1.3,0.6-1.3,1.3H116.3L116.3,46.6z M117.2,48.2
								c-0.3,0.9-1.1,1.6-2.2,1.6c-1.3,0-2.5-1-2.5-2.6c0-1.5,1.1-2.6,2.3-2.6c1.5,0,2.4,1,2.4,2.6c0,0.1,0,0.2,0,0.3h-3.7
								c0,0.9,0.7,1.5,1.5,1.5s1.2-0.4,1.4-1L117.2,48.2z"/>
							<path id="path76" class="st0" d="M119.1,47.1c0,1.1,0.7,1.7,1.5,1.7c0.9,0,1.3-0.6,1.4-1l0.8,0.4c-0.2,0.7-0.9,1.5-2.2,1.5
								c-1.4,0-2.5-1.1-2.5-2.6s1.1-2.6,2.5-2.6c1.3,0,2,0.8,2.2,1.6l-0.9,0.4c-0.1-0.5-0.5-1-1.3-1C119.8,45.4,119.1,46,119.1,47.1
								"/>
							<path id="path80" class="st0" d="M124.9,49.6h-1v-7.4h1v3c0.4-0.5,0.9-0.7,1.5-0.7c1.2,0,1.8,0.8,1.8,1.9v3.1h-1v-2.9
								c0-0.7-0.3-1.2-1.1-1.2c-0.7,0-1.1,0.6-1.1,1.3L124.9,49.6L124.9,49.6z"/>
							<path id="path84" class="st0" d="M130.6,49.6h-1v-4.9h0.9v0.7c0.4-0.6,0.9-0.8,1.5-0.8c1.2,0,1.8,0.8,1.8,1.9v3.1h-1v-2.9
								c0-0.7-0.3-1.2-1.1-1.2s-1.1,0.6-1.1,1.3L130.6,49.6L130.6,49.6z"/>
							<path id="path88" class="st0" d="M139,47.1c0-1.1-0.7-1.7-1.5-1.7S136,46,136,47.1c0,1.1,0.7,1.8,1.5,1.8S139,48.3,139,47.1
								 M140,47.1c0,1.5-1,2.6-2.5,2.6s-2.5-1.1-2.5-2.6s1-2.6,2.5-2.6C138.9,44.5,140,45.6,140,47.1"/>
							<polygon id="path90" class="st0" points="141.2,42.2 142.1,42.2 142.1,49.6 141.2,49.6 							"/>
							<path id="path94" class="st0" d="M147.4,47.1c0-1.1-0.7-1.7-1.5-1.7s-1.5,0.6-1.5,1.7c0,1.1,0.7,1.8,1.5,1.8
								C146.7,48.9,147.4,48.3,147.4,47.1 M148.4,47.1c0,1.5-1,2.6-2.5,2.6s-2.5-1.1-2.5-2.6s1-2.6,2.5-2.6
								C147.3,44.5,148.4,45.6,148.4,47.1"/>
							<path id="path98" class="st0" d="M153.1,47c0-0.9-0.6-1.6-1.4-1.6c-0.8,0-1.4,0.6-1.4,1.6s0.5,1.6,1.4,1.6
								C152.5,48.5,153.1,47.9,153.1,47L153.1,47z M150.2,49.6c0.1,0.7,0.6,1.2,1.3,1.2c1,0,1.5-0.5,1.5-1.6v-0.7
								c-0.2,0.4-0.8,0.8-1.5,0.8c-1.3,0-2.3-1-2.3-2.4c0-1.3,0.9-2.4,2.3-2.4c0.8,0,1.3,0.3,1.5,0.8v-0.7h0.9v4.5
								c0,1.2-0.6,2.5-2.5,2.5c-1.2,0-2.1-0.8-2.3-1.8L150.2,49.6z"/>
							<polygon id="path102" class="st0" points="155.6,51.6 156.9,49 154.7,44.7 155.8,44.7 157.4,48.1 158.8,44.7 159.9,44.7 
								156.7,51.6 							"/>
							<polygon id="path106" class="st0" points="52.2,62.4 52.2,55.2 56.6,55.2 56.6,56.1 53.2,56.1 53.2,58.4 56.2,58.4 
								56.2,59.4 53.2,59.4 53.2,62.4 							"/>
							<path id="path110" class="st0" d="M61,60c0-1.1-0.7-1.7-1.5-1.7S58,58.9,58,60c0,1.1,0.7,1.8,1.5,1.8S61,61.1,61,60 M61.9,60
								c0,1.5-1,2.6-2.5,2.6s-2.5-1.1-2.5-2.6s1-2.6,2.5-2.6S61.9,58.5,61.9,60"/>
							<path id="path114" class="st0" d="M64.9,62.6c-1.1,0-1.8-0.9-1.8-2v-3.1h1v2.9c0,0.7,0.3,1.3,1.1,1.3c0.8,0,1.2-0.5,1.2-1.3
								v-3h1v4c0,0.4,0,0.7,0.1,0.9h-0.9c0-0.1,0-0.4,0-0.6C66.1,62.3,65.5,62.6,64.9,62.6"/>
							<path id="path118" class="st0" d="M69.8,62.4h-1v-4.9h0.9v0.7c0.4-0.6,0.9-0.8,1.5-0.8c1.2,0,1.8,0.8,1.8,1.9v3.1h-1v-2.9
								c0-0.7-0.3-1.2-1.1-1.2c-0.8,0-1.1,0.6-1.1,1.3C69.8,59.6,69.8,62.4,69.8,62.4z"/>
							<path id="path122" class="st0" d="M76.6,61.7c0.9,0,1.4-0.8,1.4-1.8s-0.5-1.7-1.4-1.7s-1.4,0.7-1.4,1.7
								C75.2,61,75.7,61.7,76.6,61.7L76.6,61.7z M78,61.7c-0.2,0.5-0.8,0.9-1.5,0.9c-1.4,0-2.3-1.1-2.3-2.6c0-1.4,0.9-2.6,2.3-2.6
								c0.9,0,1.3,0.4,1.5,0.8V55h1v6.5c0,0.5,0,0.8,0.1,0.9h-0.9C78.1,62.3,78,62.1,78,61.7L78,61.7z"/>
							<path id="path126" class="st0" d="M83.5,60.3v-0.2L82,60.3c-0.4,0.1-0.7,0.3-0.7,0.7s0.3,0.7,0.8,0.7
								C82.9,61.8,83.5,61.4,83.5,60.3 M81.8,59.6l1.3-0.2c0.3,0,0.4-0.2,0.4-0.4c0-0.5-0.3-0.9-1.1-0.9c-0.7,0-1,0.4-1.1,1L80.4,59
								c0.1-0.9,0.9-1.6,2-1.6c1.5,0,2,0.8,2,1.8v2.5c0,0.4,0,0.7,0.1,0.8h-0.9c0-0.1-0.1-0.3-0.1-0.7c-0.2,0.3-0.7,0.8-1.6,0.8
								c-1,0-1.6-0.7-1.6-1.5C80.3,60.2,80.9,59.7,81.8,59.6"/>
							<path id="path130" class="st0" d="M87.2,57.5h1.1v0.9h-1.1v2.5c0,0.4,0.2,0.7,0.7,0.7c0.1,0,0.3,0,0.4,0v0.8
								c-0.1,0-0.3,0.1-0.7,0.1c-0.8,0-1.4-0.5-1.4-1.4v-2.7h-0.9v-0.9h0.3c0.5,0,0.8-0.3,0.8-0.8V56h0.9v1.5H87.2z"/>
							<path id="path132" class="st0" d="M89.6,57.5h0.9v4.9h-0.9V57.5L89.6,57.5z M90,55c0.4,0,0.7,0.3,0.7,0.7s-0.3,0.7-0.7,0.7
								c-0.4,0-0.7-0.3-0.7-0.7S89.6,55,90,55L90,55z"/>
							<path id="path136" class="st0" d="M95.8,60c0-1.1-0.7-1.7-1.5-1.7s-1.5,0.6-1.5,1.7c0,1.1,0.7,1.8,1.5,1.8
								C95.1,61.7,95.8,61.1,95.8,60 M96.7,60c0,1.5-1,2.6-2.5,2.6s-2.5-1.1-2.5-2.6s1-2.6,2.5-2.6S96.7,58.5,96.7,60"/>
							<path id="path140" class="st0" d="M98.9,62.4h-1v-4.9h0.9v0.7c0.4-0.6,0.9-0.8,1.5-0.8c1.2,0,1.8,0.8,1.8,1.9v3.1h-1v-2.9
								c0-0.7-0.3-1.2-1.1-1.2c-0.8,0-1.1,0.6-1.1,1.3C98.9,59.6,98.9,62.4,98.9,62.4z"/>
							<path id="path144" class="st0" d="M107.5,58.4v4h-1v-4h-0.9v-0.9h0.9v-0.8c0-1.1,0.7-1.7,1.6-1.7c0.3,0,0.5,0.1,0.6,0.1V56
								c-0.1,0-0.2-0.1-0.4-0.1c-0.3,0-0.8,0.2-0.8,0.8v0.8h1.2v0.9H107.5z"/>
							<path id="path148" class="st0" d="M113.2,60c0-1.1-0.7-1.7-1.5-1.7s-1.5,0.6-1.5,1.7c0,1.1,0.7,1.8,1.5,1.8
								S113.2,61.1,113.2,60 M114.2,60c0,1.5-1,2.6-2.5,2.6s-2.5-1.1-2.5-2.6s1-2.6,2.5-2.6C113.1,57.4,114.2,58.5,114.2,60"/>
							<path id="path152" class="st0" d="M118.1,58.5c-0.1,0-0.3,0-0.4,0c-0.8,0-1.3,0.4-1.3,1.5v2.5h-1v-4.9h0.9v0.9
								c0.4-0.8,1-0.9,1.5-0.9c0.1,0,0.3,0,0.3,0V58.5z"/>
							<polygon id="path156" class="st0" points="121.8,62.4 121.8,55.2 126.2,55.2 126.2,56.1 122.8,56.1 122.8,58.3 125.8,58.3 
								125.8,59.3 122.8,59.3 122.8,61.5 126.2,61.5 126.2,62.4 							"/>
							<path id="path160" class="st0" d="M129.4,61.7c0.9,0,1.4-0.8,1.4-1.8s-0.5-1.7-1.4-1.7s-1.4,0.7-1.4,1.7
								C128,61,128.5,61.7,129.4,61.7L129.4,61.7z M130.8,61.7c-0.2,0.5-0.8,0.9-1.5,0.9c-1.4,0-2.3-1.1-2.3-2.6
								c0-1.4,0.9-2.6,2.3-2.6c0.9,0,1.3,0.4,1.5,0.8V55h0.9v6.5c0,0.5,0,0.8,0.1,0.9h-0.9C130.9,62.3,130.8,62.1,130.8,61.7
								L130.8,61.7z"/>
							<path id="path164" class="st0" d="M135.1,62.6c-1.1,0-1.8-0.9-1.8-2v-3.1h1v2.9c0,0.7,0.3,1.3,1.1,1.3s1.2-0.5,1.2-1.3v-3h1
								v4c0,0.4,0,0.7,0.1,0.9h-0.9c0-0.1,0-0.4,0-0.6C136.3,62.3,135.7,62.6,135.1,62.6"/>
							<path id="path168" class="st0" d="M139.6,60c0,1.1,0.7,1.7,1.5,1.7c0.9,0,1.3-0.6,1.4-1l0.8,0.4c-0.2,0.7-0.9,1.5-2.2,1.5
								c-1.4,0-2.5-1.1-2.5-2.6s1.1-2.6,2.5-2.6c1.3,0,2,0.8,2.2,1.6l-0.9,0.4c-0.1-0.5-0.5-1-1.3-1C140.3,58.2,139.6,58.8,139.6,60
								"/>
							<path id="path172" class="st0" d="M147.3,60.3v-0.2l-1.5,0.2c-0.4,0.1-0.7,0.3-0.7,0.7s0.3,0.7,0.8,0.7
								C146.7,61.8,147.3,61.4,147.3,60.3 M145.6,59.6l1.3-0.2c0.3,0,0.4-0.2,0.4-0.4c0-0.5-0.3-0.9-1.1-0.9c-0.7,0-1.1,0.4-1.1,1
								l-0.9-0.2c0.1-0.9,0.9-1.6,2-1.6c1.5,0,2,0.8,2,1.8v2.5c0,0.4,0,0.7,0.1,0.8h-0.9c0-0.1-0.1-0.3-0.1-0.7
								c-0.2,0.3-0.7,0.8-1.6,0.8c-1,0-1.6-0.7-1.6-1.5C144.1,60.2,144.7,59.7,145.6,59.6"/>
							<path id="path176" class="st0" d="M151,57.5h1.1v0.9H151v2.5c0,0.4,0.2,0.7,0.7,0.7c0.1,0,0.3,0,0.4,0v0.8
								c-0.1,0-0.3,0.1-0.7,0.1c-0.8,0-1.4-0.5-1.4-1.4v-2.7h-0.9v-0.9h0.3c0.5,0,0.8-0.3,0.8-0.8V56h0.9v1.5H151z"/>
							<path id="path178" class="st0" d="M153.4,57.5h0.9v4.9h-0.9V57.5L153.4,57.5z M153.8,55c0.4,0,0.7,0.3,0.7,0.7
								s-0.3,0.7-0.7,0.7s-0.7-0.3-0.7-0.7S153.4,55,153.8,55L153.8,55z"/>
							<path id="path182" class="st0" d="M159.6,60c0-1.1-0.7-1.7-1.5-1.7s-1.5,0.6-1.5,1.7c0,1.1,0.7,1.8,1.5,1.8
								C158.9,61.7,159.6,61.1,159.6,60 M160.5,60c0,1.5-1,2.6-2.5,2.6s-2.5-1.1-2.5-2.6s1-2.6,2.5-2.6S160.5,58.5,160.5,60"/>
							<path id="path186" class="st0" d="M162.7,62.4h-1v-4.9h0.9v0.7c0.4-0.6,0.9-0.8,1.5-0.8c1.2,0,1.8,0.8,1.8,1.9v3.1h-1v-2.9
								c0-0.7-0.3-1.2-1.1-1.2s-1.1,0.6-1.1,1.3L162.7,62.4L162.7,62.4z"/>
							<polygon id="path190" class="st0" points="15.5,14.6 15.5,14.6 22.8,7.3 22.8,14.6 30.1,14.6 30.1,14.6 37.4,7.3 30.1,7.3 
								30.1,0 22.8,7.3 15.5,7.3 15.5,0 8.2,7.3 0.8,7.3 0.8,14.6 8.2,7.3 8.2,14.6 							"/>
							<polygon id="path194" class="st0" points="30.1,22 22.8,14.6 22.8,22 15.5,22 8.2,14.6 8.2,22 0.8,22 0.8,29.3 8.2,22 
								8.2,36.6 15.5,29.3 15.5,29.3 22.8,22 22.8,36.6 30.1,29.3 30.1,29.3 37.4,22 							"/>
							<polygon id="path198" class="st0" points="8.2,22 0.8,29.3 8.2,29.3 							"/>
							<polygon id="path202" class="st0" points="8.2,0 8.2,7.3 15.5,0 							"/>
							<polygon id="path206" class="st0" points="15.5,36.6 15.5,29.3 8.2,36.6 							"/>
							<polygon id="path210" class="st0" points="22.8,22 15.5,29.3 22.8,29.3 							"/>
							<polygon id="path214" class="st0" points="22.8,0 22.8,7.3 30.1,0 							"/>
							<polygon id="path218" class="st0" points="30.1,36.6 30.1,29.3 22.8,36.6 							"/>
							<polygon id="path222" class="st0" points="30.1,14.6 22.8,14.6 22.8,7.3 15.5,14.6 8.2,14.6 8.2,7.3 0.8,14.6 8.2,14.6 
								15.5,22 15.5,14.6 22.8,14.6 30.1,22 30.1,14.6 37.4,14.6 37.4,7.3 							"/>
							<polygon id="path226" class="st0" points="37.4,29.3 37.4,22 30.1,29.3 							"/>
						</g>
					</g>
				</g>
			</g>
		</g>
	</g>
</g>
</svg>
