<?xml version="1.0" encoding="UTF-8"?>
<svg width="170px" height="63px" viewBox="0 0 170 63" version="1.1" xmlns="http://www.w3.org/2000/svg" xmlns:xlink="http://www.w3.org/1999/xlink">
    <!-- Generator: Sketch 46.2 (44496) - http://www.bohemiancoding.com/sketch -->
    <title>Group</title>
    <desc>Created with Sketch.</desc>
    <defs></defs>
    <g id="Page-1" stroke="none" stroke-width="1" fill="none" fill-rule="evenodd">
        <g id="Avaleht" transform="translate(-311.000000, -3425.000000)" fill-rule="nonzero" fill="#FFFFFF">
            <g id="Group-203" transform="translate(0.000000, 3338.000000)">
                <g id="Group-201" transform="translate(110.000000, 40.000000)">
                    <g id="Group-200" transform="translate(1.000000, 46.000000)">
                        <g id="Group-163" transform="translate(1.000000, 0.000000)">
                            <g id="Group" transform="translate(199.000000, 1.000000)">
                                <polygon id="path10" transform="translate(64.285510, 18.378683) scale(-1, 1) rotate(-180.000000) translate(-64.285510, -18.378683) " points="70.66051 3.70362167 70.66051 15.8747424 57.8686381 15.8747424 57.8686381 3.70362167 52.1562613 3.70362167 52.1562613 33.0537448 57.8686381 33.0537448 57.8686381 21.256331 70.66051 21.256331 70.66051 33.0537448 76.4147588 33.0537448 76.4147588 3.70362167"></polygon>
                                <polygon id="path12" points="81.4643032 3.70990246 87.260382 3.70990246 87.260382 33.0604443 81.4644706 33.0604443 81.4644706 3.70822759"></polygon>
                                <polygon id="path16" transform="translate(103.011070, 18.380777) scale(-1, 1) rotate(-180.000000) translate(-103.011070, -18.380777) " points="105.888195 27.6334246 105.888195 3.70571527 100.133946 3.70571527 100.133946 27.6334246 90.8614091 27.6334246 90.8614091 33.0558384 115.160732 33.0558384 115.160732 27.6334246"></polygon>
                                <path d="M133.790806,24.4888433 C133.500843,26.1030059 132.176643,28.6289296 128.450042,28.6289296 C125.677074,28.6289296 123.855646,26.8483261 123.855646,24.9033754 C123.855646,23.2892128 124.890929,22.0047916 127.043146,21.5902596 L131.14136,20.8041143 C136.482123,19.7698778 139.337788,16.2924148 139.337788,12.1523286 C139.337788,7.63958227 135.571409,3.08705764 128.740005,3.08705764 C120.958109,3.08705764 117.521471,8.09598621 117.066113,12.2768975 L122.365005,13.6848409 C122.613096,10.7862571 124.641791,8.17868325 128.781877,8.17868325 C131.845855,8.17868325 133.542714,9.71014877 133.542714,11.7796685 C133.542714,13.4765281 132.25934,14.8017744 129.982554,15.2581783 L125.88434,16.0861956 C121.2062,17.037735 118.184094,20.0598409 118.184094,24.4888433 C118.184094,29.7039911 122.862234,33.6786833 128.409217,33.6786833 C135.529537,33.6786833 138.26168,29.3742498 138.924303,26.0621808 L133.790806,24.4888433 Z" id="path20" transform="translate(128.201951, 18.382870) scale(-1, 1) rotate(-180.000000) translate(-128.201951, -18.382870) "></path>
                                <path d="M151.050412,15.632932 L159.164143,15.632932 L155.106754,26.7279443 L151.050412,15.632932 Z M161.068269,10.4177842 L149.146286,10.4177842 L146.704106,3.70990246 L140.659894,3.70990246 L151.920301,33.0600256 L158.543392,33.0600256 L169.720054,3.70990246 L163.510448,3.70990246 L161.068269,10.4177842 Z" id="path24" transform="translate(155.189974, 18.384964) scale(-1, 1) rotate(-180.000000) translate(-155.189974, -18.384964) "></path>
                                <polygon id="path26" points="52.1690322 42.3493113 53.1886135 42.3493113 53.1886135 49.5784985 52.1686135 49.5784985 52.1686135 42.3514049"></polygon>
                                <path d="M55.8797219,44.5287448 L54.9208549,44.5287448 L54.9208549,49.4340404 L55.8587859,49.4340404 L55.8587859,48.7305921 C56.215744,49.342969 56.7967169,49.5764049 57.3682687,49.5764049 C58.5406825,49.5764049 59.1227022,48.7305921 59.1227022,47.6398286 L59.1227022,44.5287448 L58.1638352,44.5287448 L58.1638352,47.4754813 C58.1638352,48.1590404 57.8780593,48.7096562 57.0217785,48.7096562 C56.2670371,48.7096562 55.8797219,48.1077473 55.8797219,47.3634739 L55.8797219,44.5287448 Z" id="path30" transform="translate(57.021779, 47.052575) scale(-1, 1) rotate(-180.000000) translate(-57.021779, -47.052575) "></path>
                                <path d="M61.9360766,46.2015281 L61.9360766,42.1640281 L60.9468524,42.1640281 L60.9468524,46.2015281 L60.0392785,46.2015281 L60.0392785,47.0682768 L60.9468524,47.0682768 L60.9468524,47.8942005 C60.9468524,48.984964 61.6712367,49.5774517 62.5578746,49.5774517 C62.8844756,49.5774517 63.0886012,49.5052227 63.1294263,49.4748655 L63.1294263,48.6196315 C63.0781332,48.6384739 62.9556578,48.679299 62.7107071,48.679299 C62.3746849,48.679299 61.9360766,48.5170453 61.9360766,47.8429074 L61.9360766,47.0682768 L63.1189583,47.0682768 L63.1189583,46.2015281 L61.9360766,46.2015281 Z" id="path34" transform="translate(61.584352, 45.870740) scale(-1, 1) rotate(-180.000000) translate(-61.584352, -45.870740) "></path>
                                <path d="M67.5745495,47.1237571 C67.5745495,48.2553458 66.8606332,48.8677227 66.0451775,48.8677227 C65.2297219,48.8677227 64.5158056,48.2553458 64.5158056,47.1237571 C64.5158056,45.9817005 65.2297219,45.3703704 66.0451775,45.3703704 C66.8606332,45.3703704 67.5745495,45.9817005 67.5745495,47.1237571 M68.5543524,47.1237571 C68.5543524,45.6247424 67.5138352,44.5140897 66.0451775,44.5140897 C64.5765199,44.5140897 63.5370495,45.6247424 63.5370495,47.1237571 C63.5370495,48.6133507 64.5765199,49.7240034 66.0451775,49.7240034 C67.5138352,49.7240034 68.5543524,48.6133507 68.5543524,47.1237571" id="path38" transform="translate(66.045701, 47.119047) scale(-1, 1) rotate(-180.000000) translate(-66.045701, -47.119047) "></path>
                                <path d="M72.4995248,48.5275133 C72.3571603,48.5484493 72.213749,48.5578704 72.0818524,48.5578704 C71.2758179,48.5578704 70.7356701,48.1286833 70.7356701,47.0483877 L70.7356701,44.5905059 L69.7768032,44.5905059 L69.7768032,49.4958015 L70.7147342,49.4958015 L70.7147342,48.6384739 C71.0716923,49.3942621 71.6840692,49.5774517 72.1833918,49.5774517 C72.3163352,49.5774517 72.4482317,49.5565158 72.4995248,49.5470946 L72.4995248,48.5275133 Z" id="path42" transform="translate(71.138164, 47.083979) scale(-1, 1) rotate(-180.000000) translate(-71.138164, -47.083979) "></path>
                                <path d="M73.5186874,44.5287448 L73.5186874,49.4340404 L74.4367293,49.4340404 L74.4367293,48.7808384 C74.7423943,49.3209862 75.3537243,49.5764049 75.9252761,49.5764049 C76.5366061,49.5764049 77.128047,49.2812079 77.3939337,48.6489419 C77.781249,49.3513433 78.413515,49.5764049 79.035313,49.5764049 C79.8915938,49.5764049 80.7279854,48.995432 80.7279854,47.709964 L80.7279854,44.5287448 L79.7795864,44.5287448 L79.7795864,47.6084246 C79.7795864,48.2511586 79.4634534,48.7305921 78.7390692,48.7305921 C78.0670248,48.7305921 77.6074805,48.1998655 77.6074805,47.4964172 L77.6074805,44.5287448 L76.6496603,44.5287448 L76.6496603,47.6084246 C76.6496603,48.2406906 76.3429485,48.7305921 75.6091431,48.7305921 C74.9255839,48.7305921 74.4670864,48.2197547 74.4670864,47.4859493 L74.4670864,44.5287448 L73.5186874,44.5287448 Z" id="path46" transform="translate(77.123336, 47.052575) scale(-1, 1) rotate(-180.000000) translate(-77.123336, -47.052575) "></path>
                                <path d="M85.1423327,46.7699394 L85.1423327,46.995001 L83.6433179,46.7699394 C83.2361135,46.7081783 82.9294017,46.4747424 82.9294017,46.036134 C82.9294017,45.6687079 83.2361135,45.3222177 83.7249682,45.3222177 C84.5100667,45.3222177 85.1423327,45.7001118 85.1423327,46.7699394 M83.4402391,47.4733877 L84.7654854,47.6670453 C85.0606825,47.7078704 85.1423327,47.8617498 85.1423327,48.0344714 C85.1423327,48.5139049 84.8261997,48.9116882 84.0819263,48.9116882 C83.4088352,48.9116882 83.0319879,48.492969 82.9702268,47.922464 L82.0532317,48.1370576 C82.1547711,49.0739419 83.0016307,49.7271438 84.0620371,49.7271438 C85.529648,49.7271438 86.1011997,48.8907522 86.1011997,47.9318852 L86.1011997,45.4750502 C86.1011997,45.0469099 86.1420248,44.7914911 86.161914,44.6690158 L85.223983,44.6690158 C85.2040938,44.7914911 85.1726899,44.9757276 85.1726899,45.3326857 C84.9591431,44.9861956 84.4692416,44.51723 83.5930716,44.51723 C82.5933795,44.51723 81.9506455,45.2102103 81.9506455,45.9848409 C81.9506455,46.8620576 82.5933795,47.3519591 83.4402391,47.4733877" id="path50" transform="translate(84.056280, 47.122187) scale(-1, 1) rotate(-180.000000) translate(-84.056280, -47.122187) "></path>
                                <path d="M88.8739583,48.073203 L89.9343647,48.073203 L89.9343647,47.2064542 L88.8739583,47.2064542 L88.8739583,44.657501 C88.8739583,44.2094714 89.057148,43.9844099 89.5575174,43.9844099 C89.6799928,43.9844099 89.8527145,44.004299 89.9343647,44.025235 L89.9343647,43.2097793 C89.8527145,43.1783754 89.6088105,43.1187079 89.2822096,43.1187079 C88.4458179,43.1187079 87.9150913,43.6274517 87.9150913,44.5151365 L87.9150913,47.2064542 L86.9771603,47.2064542 L86.9771603,48.073203 L87.2420002,48.073203 C87.7727268,48.073203 87.9977884,48.3998039 87.9977884,48.8279443 L87.9977884,49.6235108 L88.8739583,49.6235108 L88.8739583,48.073203 L88.8739583,48.073203 Z" id="path54" transform="translate(88.455763, 46.371109) scale(-1, 1) rotate(-180.000000) translate(-88.455763, -46.371109) "></path>
                                <path d="M91.2087367,44.6690158 L92.1571357,44.6690158 L92.1571357,49.5743113 L91.2091554,49.5743113 L91.2091554,44.6669222 L91.2087367,44.6690158 Z M91.6777022,42.1200207 C92.0650174,42.1200207 92.3717293,42.4256857 92.3717293,42.813001 C92.3717293,43.1898483 92.0650174,43.4965601 91.6777022,43.4965601 C91.3008549,43.4965601 90.9941431,43.1898483 90.9941431,42.813001 C90.9941431,42.4256857 91.3008549,42.1200207 91.6777022,42.1200207 L91.6777022,42.1200207 Z" id="path56"></path>
                                <path d="M97.4183426,47.1237571 C97.4183426,48.2553458 96.7044263,48.8677227 95.8889706,48.8677227 C95.073515,48.8677227 94.3595987,48.2553458 94.3595987,47.1237571 C94.3595987,45.9817005 95.073515,45.3703704 95.8889706,45.3703704 C96.7044263,45.3703704 97.4183426,45.9817005 97.4183426,47.1237571 M98.3970987,47.1237571 C98.3970987,45.6247424 97.3565815,44.5140897 95.8889706,44.5140897 C94.420313,44.5140897 93.3808426,45.6247424 93.3808426,47.1237571 C93.3808426,48.6133507 94.420313,49.7240034 95.8889706,49.7240034 C97.3565815,49.7240034 98.3970987,48.6133507 98.3970987,47.1237571" id="path60" transform="translate(95.888971, 47.119047) scale(-1, 1) rotate(-180.000000) translate(-95.888971, -47.119047) "></path>
                                <path d="M100.578835,44.5287448 L99.6199682,44.5287448 L99.6199682,49.4340404 L100.557899,49.4340404 L100.557899,48.7305921 C100.915904,49.342969 101.49583,49.5764049 102.067382,49.5764049 C103.239796,49.5764049 103.821815,48.7305921 103.821815,47.6398286 L103.821815,44.5287448 L102.862948,44.5287448 L102.862948,47.4754813 C102.862948,48.1590404 102.577173,48.7096562 101.720892,48.7096562 C100.96615,48.7096562 100.578835,48.1077473 100.578835,47.3634739 L100.578835,44.5287448 Z" id="path64" transform="translate(101.720892, 47.052575) scale(-1, 1) rotate(-180.000000) translate(-101.720892, -47.052575) "></path>
                                <polygon id="path68" transform="translate(110.102813, 45.958148) scale(-1, 1) rotate(-180.000000) translate(-110.102813, -45.958148) " points="110.602136 48.6458015 110.602136 42.3430305 109.602444 42.3430305 109.602444 48.6458015 107.186434 48.6458015 107.186434 49.5732645 113.019192 49.5732645 113.019192 48.6458015"></polygon>
                                <path d="M116.271594,47.6293606 C116.250658,48.3328089 115.79216,48.8834246 114.925412,48.8834246 C114.119377,48.8834246 113.630522,48.2616266 113.589697,47.6293606 L116.271594,47.6293606 L116.271594,47.6293606 Z M117.239882,46.0696315 C116.964574,45.2028828 116.179476,44.5193236 115.037419,44.5193236 C113.722641,44.5193236 112.570116,45.4771438 112.570116,47.1394591 C112.570116,48.6803458 113.680769,49.7302842 114.914944,49.7302842 C116.424426,49.7302842 117.271286,48.689767 117.271286,47.1603951 C117.271286,47.0389665 117.259771,46.9154443 117.25035,46.85473 L113.55934,46.85473 C113.579229,45.9775133 114.211495,45.3661833 115.037419,45.3661833 C115.832985,45.3661833 116.230769,45.8047916 116.413958,46.3543606 L117.239882,46.0696315 Z" id="path72" transform="translate(114.920701, 47.124804) scale(-1, 1) rotate(-180.000000) translate(-114.920701, -47.124804) "></path>
                                <path d="M119.060264,47.1237571 C119.060264,46.0026365 119.763712,45.4007276 120.559279,45.4007276 C121.47732,45.4007276 121.813343,46.0225256 121.92535,46.4098409 L122.77221,46.0434616 C122.537727,45.3400133 121.833232,44.5140897 120.559279,44.5140897 C119.131446,44.5140897 118.081508,45.6352103 118.081508,47.1237571 C118.081508,48.6531291 119.151335,49.7240034 120.548811,49.7240034 C121.854168,49.7240034 122.527259,48.9085478 122.730338,48.1642744 L121.864636,47.7978951 C121.74216,48.2762818 121.385202,48.8373655 120.548811,48.8373655 C119.77418,48.8373655 119.060264,48.2658138 119.060264,47.1237571" id="path76" transform="translate(120.426859, 47.119047) scale(-1, 1) rotate(-180.000000) translate(-120.426859, -47.119047) "></path>
                                <path d="M124.855338,42.1933384 L123.896471,42.1933384 L123.896471,49.5764049 L124.855338,49.5764049 L124.855338,46.5281291 C125.212296,47.0473409 125.783847,47.2409985 126.343884,47.2409985 C127.516298,47.2409985 128.098318,46.3951857 128.098318,45.3044222 L128.098318,42.1933384 L127.139451,42.1933384 L127.139451,45.1400749 C127.139451,45.823634 126.853675,46.3742498 125.997394,46.3742498 C125.263589,46.3742498 124.876274,45.802698 124.855338,45.0793606 L124.855338,42.1933384 Z" id="path80" transform="translate(125.997394, 45.884872) scale(-1, 1) rotate(-180.000000) translate(-125.997394, -45.884872) "></path>
                                <path d="M130.583416,44.5287448 L129.624549,44.5287448 L129.624549,49.4340404 L130.56248,49.4340404 L130.56248,48.7305921 C130.919439,49.342969 131.501458,49.5764049 132.071963,49.5764049 C133.244377,49.5764049 133.826397,48.7305921 133.826397,47.6398286 L133.826397,44.5287448 L132.86753,44.5287448 L132.86753,47.4754813 C132.86753,48.1590404 132.581754,48.7096562 131.725473,48.7096562 C130.970732,48.7096562 130.583416,48.1077473 130.583416,47.3634739 L130.583416,44.5287448 Z" id="path84" transform="translate(131.725473, 47.052575) scale(-1, 1) rotate(-180.000000) translate(-131.725473, -47.052575) "></path>
                                <path d="M138.991298,47.1237571 C138.991298,48.2553458 138.277382,48.8677227 137.461926,48.8677227 C136.646471,48.8677227 135.932554,48.2553458 135.932554,47.1237571 C135.932554,45.9817005 136.646471,45.3703704 137.461926,45.3703704 C138.277382,45.3703704 138.991298,45.9817005 138.991298,47.1237571 M139.970054,47.1237571 C139.970054,45.6247424 138.929537,44.5140897 137.461926,44.5140897 C135.993269,44.5140897 134.953798,45.6247424 134.953798,47.1237571 C134.953798,48.6133507 135.993269,49.7240034 137.461926,49.7240034 C138.929537,49.7240034 139.970054,48.6133507 139.970054,47.1237571" id="path88" transform="translate(137.461926, 47.119047) scale(-1, 1) rotate(-180.000000) translate(-137.461926, -47.119047) "></path>
                                <polygon id="path90" points="141.185387 42.190198 142.144254 42.190198 142.144254 49.5732227 141.189574 49.5732227 141.189574 42.1870158"></polygon>
                                <path d="M147.407554,47.1237571 C147.407554,48.2553458 146.693638,48.8677227 145.878182,48.8677227 C145.06168,48.8677227 144.348811,48.2553458 144.348811,47.1237571 C144.348811,45.9817005 145.06168,45.3703704 145.878182,45.3703704 C146.693638,45.3703704 147.407554,45.9817005 147.407554,47.1237571 M148.386311,47.1237571 C148.386311,45.6247424 147.345793,44.5140897 145.878182,44.5140897 C144.409525,44.5140897 143.369008,45.6247424 143.369008,47.1237571 C143.369008,48.6133507 144.409525,49.7240034 145.878182,49.7240034 C147.345793,49.7240034 148.386311,48.6133507 148.386311,47.1237571" id="path94" transform="translate(145.877659, 47.119047) scale(-1, 1) rotate(-180.000000) translate(-145.877659, -47.119047) "></path>
                                <path d="M153.060264,49.2791143 C153.060264,50.2275133 152.489759,50.8493113 151.662788,50.8493113 C150.816976,50.8493113 150.246471,50.2275133 150.246471,49.2791143 C150.246471,48.3202473 150.79604,47.7089172 151.662788,47.7089172 C152.489759,47.7089172 153.060264,48.3307153 153.060264,49.2791143 L153.060264,49.2791143 Z M150.18471,46.6181537 C150.255892,45.9345946 150.77615,45.414336 151.520424,45.414336 C152.550473,45.414336 153.019439,45.9440158 153.019439,47.005469 L153.019439,47.7089172 C152.784956,47.2598409 152.254229,46.9028828 151.520424,46.9028828 C150.215067,46.9028828 149.266668,47.8921069 149.266668,49.2791143 C149.266668,50.6054074 150.174242,51.664767 151.520424,51.664767 C152.275165,51.664767 152.784956,51.3800379 153.029907,50.8901365 L153.029907,51.5726488 L153.977259,51.5726488 L153.977259,47.0347793 C153.977259,45.79223 153.365929,44.5779443 151.520424,44.5779443 C150.296717,44.5779443 149.378675,45.3536217 149.2562,46.4035601 L150.18471,46.6181537 Z" id="path98" transform="translate(151.616729, 48.121356) scale(-1, 1) rotate(-180.000000) translate(-151.616729, -48.121356) "></path>
                                <polygon id="path102" transform="translate(157.308170, 48.150666) scale(-1, 1) rotate(-180.000000) translate(-157.308170, -48.150666) " points="155.6312 44.673203 156.85386 47.2640281 154.743515 51.6281291 155.844747 51.6281291 157.374118 48.2427842 158.842776 51.6281291 159.872825 51.6281291 156.681138 44.673203"></polygon>
                                <polygon id="path106" transform="translate(54.365424, 58.808117) scale(-1, 1) rotate(-180.000000) translate(-54.365424, -58.808117) " points="52.1681948 55.1935232 52.1681948 62.4227103 56.5626529 62.4227103 56.5626529 61.4952473 53.1678869 61.4952473 53.1678869 59.1703089 56.2465199 59.1703089 56.2465199 58.2323778 53.1678869 58.2323778 53.1678869 55.1935232"></polygon>
                                <path d="M60.957111,59.9711094 C60.957111,61.102698 60.2431948,61.7150749 59.4277391,61.7150749 C58.6122834,61.7150749 57.8983672,61.102698 57.8983672,59.9711094 C57.8983672,58.8290527 58.6122834,58.2166759 59.4277391,58.2166759 C60.2431948,58.2166759 60.957111,58.8290527 60.957111,59.9711094 M61.9358672,59.9711094 C61.9358672,58.4720946 60.8963967,57.3603951 59.4277391,57.3603951 C57.9590815,57.3603951 56.919611,58.4720946 56.919611,59.9711094 C56.919611,61.4596562 57.9590815,62.5713557 59.4277391,62.5713557 C60.8963967,62.5713557 61.9358672,61.4596562 61.9358672,59.9711094" id="path110" transform="translate(59.427739, 59.965875) scale(-1, 1) rotate(-180.000000) translate(-59.427739, -59.965875) "></path>
                                <path d="M64.8930716,57.5153212 C63.751015,57.5153212 63.0580347,58.371602 63.0580347,59.4843483 L63.0580347,62.5734493 L64.0158549,62.5734493 L64.0158549,59.6267128 C64.0158549,58.9536217 64.3225667,58.3621808 65.1275544,58.3621808 C65.9021849,58.3621808 66.2895002,58.8719714 66.2895002,59.6162448 L66.2895002,62.5734493 L67.2483672,62.5734493 L67.2483672,58.5767744 C67.2483672,58.1894591 67.2787243,57.8419222 67.2996603,57.6681537 L66.3816184,57.6681537 C66.3617293,57.7812079 66.3407933,58.0565158 66.3407933,58.2606414 C66.0759534,57.7508507 65.4635766,57.5153212 64.8930716,57.5153212" id="path114" transform="translate(65.178847, 60.044385) scale(-1, 1) rotate(-180.000000) translate(-65.178847, -60.044385) "></path>
                                <path d="M69.8381455,57.3750502 L68.8792785,57.3750502 L68.8792785,62.2803458 L69.8172096,62.2803458 L69.8172096,61.5768975 C70.1741677,62.1882276 70.7551406,62.4227103 71.3266923,62.4227103 C72.4991061,62.4227103 73.0811258,61.5768975 73.0811258,60.4850872 L73.0811258,57.3750502 L72.1222588,57.3750502 L72.1222588,60.3217867 C72.1222588,61.0053458 71.836483,61.5559616 70.9802022,61.5559616 C70.2254608,61.5559616 69.8381455,60.9540527 69.8381455,60.2097793 L69.8381455,57.3750502 Z" id="path118" transform="translate(70.980202, 59.898880) scale(-1, 1) rotate(-180.000000) translate(-70.980202, -59.898880) "></path>
                                <path d="M76.618047,55.888597 C77.4952637,55.888597 78.0354115,56.6527596 78.0354115,57.6629197 C78.0354115,58.672033 77.5057317,59.3660601 76.628515,59.3660601 C75.7512982,59.3660601 75.1797465,58.6521438 75.1797465,57.6430305 C75.1797465,56.6328704 75.7010519,55.888597 76.618047,55.888597 L76.618047,55.888597 Z M78.0458795,55.9189542 C77.8113967,55.4499887 77.2911381,55.0417374 76.5269756,55.0417374 C75.0886751,55.0417374 74.2009903,56.1848409 74.2009903,57.6430305 C74.2009903,59.0300379 75.1399682,60.2129197 76.5269756,60.2129197 C77.3926775,60.2129197 77.8616431,59.7847793 78.0249435,59.3869961 L78.0249435,62.5577473 L78.9733426,62.5577473 L78.9733426,56.0833015 C78.9733426,55.6132892 79.0141677,55.256331 79.0246357,55.1746808 L78.0971726,55.1746808 C78.0762367,55.287735 78.0458795,55.5421069 78.0458795,55.8373039 L78.0458795,55.9189542 Z" id="path122" transform="translate(76.612813, 58.799742) scale(-1, 1) rotate(-180.000000) translate(-76.612813, -58.799742) "></path>
                                <path d="M83.4909041,59.6172916 L83.4909041,59.8413064 L81.9918894,59.6172916 C81.5846849,59.5555305 81.2779731,59.3220946 81.2779731,58.8834862 C81.2779731,58.5160601 81.5846849,58.1685232 82.0735396,58.1685232 C82.8586381,58.1685232 83.4909041,58.547464 83.4909041,59.6172916 M81.7888105,60.3207399 L83.1140568,60.5143975 C83.4092539,60.5552227 83.4909041,60.7080552 83.4909041,60.8818236 C83.4909041,61.3612571 83.1747711,61.7590404 82.4304977,61.7590404 C81.7574066,61.7590404 81.3805593,61.3403212 81.3187982,60.7698163 L80.4018032,60.9833631 C80.5033426,61.9212941 81.3502022,62.5744961 82.4106086,62.5744961 C83.8792662,62.5744961 84.4497711,61.7381044 84.4497711,60.7792374 L84.4497711,58.3224025 C84.4497711,57.8942621 84.4905963,57.6388433 84.5104854,57.516368 L83.5725544,57.516368 C83.5526652,57.6388433 83.5212613,57.822033 83.5212613,58.1789911 C83.3077145,57.832501 82.817813,57.3635355 81.9416431,57.3635355 C80.9419509,57.3635355 80.2992169,58.0575626 80.2992169,58.8321931 C80.2992169,59.7094099 80.9419509,60.1982645 81.7888105,60.3207399" id="path126" transform="translate(82.404851, 59.969016) scale(-1, 1) rotate(-180.000000) translate(-82.404851, -59.969016) "></path>
                                <path d="M87.2225298,60.921602 L88.2829362,60.921602 L88.2829362,60.0548532 L87.2225298,60.0548532 L87.2225298,57.5048532 C87.2225298,57.0578704 87.4057194,56.8328089 87.9060889,56.8328089 C88.0285642,56.8328089 88.2012859,56.852698 88.2829362,56.873634 L88.2829362,56.0581783 C88.2012859,56.0267744 87.9563352,55.9660601 87.630781,55.9660601 C86.7943894,55.9660601 86.2636628,56.4758507 86.2636628,57.3635355 L86.2636628,60.0548532 L85.3257317,60.0548532 L85.3257317,60.921602 L85.5905716,60.921602 C86.1212982,60.921602 86.345313,61.248203 86.345313,61.6763433 L86.345313,62.4708631 L87.2225298,62.4708631 L87.2225298,60.921602 Z" id="path130" transform="translate(86.804334, 59.218462) scale(-1, 1) rotate(-180.000000) translate(-86.804334, -59.218462) "></path>
                                <path d="M89.5573081,57.5153212 L90.5057071,57.5153212 L90.5057071,62.4206167 L89.5577268,62.4206167 L89.5577268,57.5132276 L89.5573081,57.5153212 Z M90.0262736,54.9653212 C90.4135889,54.9653212 90.7192539,55.272033 90.7192539,55.6593483 C90.7192539,56.0372424 90.4135889,56.3429074 90.0262736,56.3429074 C89.6494263,56.3429074 89.3427145,56.0372424 89.3427145,55.6593483 C89.3427145,55.272033 89.6494263,54.9653212 90.0262736,54.9653212 L90.0262736,54.9653212 Z" id="path132"></path>
                                <path d="M95.766914,59.9711094 C95.766914,61.102698 95.0529977,61.7150749 94.2375421,61.7150749 C93.4210396,61.7150749 92.7081701,61.102698 92.7081701,59.9711094 C92.7081701,58.8290527 93.4210396,58.2166759 94.2375421,58.2166759 C95.0529977,58.2166759 95.766914,58.8290527 95.766914,59.9711094 M96.7456701,59.9711094 C96.7456701,58.4720946 95.7051529,57.3603951 94.2375421,57.3603951 C92.7688844,57.3603951 91.729414,58.4720946 91.729414,59.9711094 C91.729414,61.4596562 92.7688844,62.5713557 94.2375421,62.5713557 C95.7051529,62.5713557 96.7456701,61.4596562 96.7456701,59.9711094" id="path136" transform="translate(94.237542, 59.965875) scale(-1, 1) rotate(-180.000000) translate(-94.237542, -59.965875) "></path>
                                <path d="M98.9274066,57.3750502 L97.9685396,57.3750502 L97.9685396,62.2803458 L98.9064706,62.2803458 L98.9064706,61.5768975 C99.2634288,62.1882276 99.8454485,62.4227103 100.415953,62.4227103 C101.588367,62.4227103 102.170387,61.5768975 102.170387,60.4850872 L102.170387,57.3750502 L101.21152,57.3750502 L101.21152,60.3217867 C101.21152,61.0053458 100.925744,61.5559616 100.069463,61.5559616 C99.3147219,61.5559616 98.9274066,60.9540527 98.9274066,60.2097793 L98.9274066,57.3750502 Z" id="path140" transform="translate(100.069463, 59.898880) scale(-1, 1) rotate(-180.000000) translate(-100.069463, -59.898880) "></path>
                                <path d="M107.532924,59.0478335 L107.532924,55.0103335 L106.5437,55.0103335 L106.5437,59.0478335 L105.636126,59.0478335 L105.636126,59.9145823 L106.5437,59.9145823 L106.5437,60.7405059 C106.5437,61.8312695 107.268084,62.4237571 108.154722,62.4237571 C108.481323,62.4237571 108.685448,62.3515281 108.726274,62.3211709 L108.726274,61.4648901 C108.67498,61.4847793 108.552505,61.5256044 108.308601,61.5256044 C107.971532,61.5256044 107.532924,61.3623039 107.532924,60.6892128 L107.532924,59.9145823 L108.715806,59.9145823 L108.715806,59.0478335 L107.532924,59.0478335 Z" id="path144" transform="translate(107.181200, 58.717045) scale(-1, 1) rotate(-180.000000) translate(-107.181200, -58.717045) "></path>
                                <path d="M113.173072,59.9711094 C113.173072,61.102698 112.459155,61.7150749 111.6437,61.7150749 C110.828244,61.7150749 110.114328,61.102698 110.114328,59.9711094 C110.114328,58.8290527 110.828244,58.2166759 111.6437,58.2166759 C112.459155,58.2166759 113.173072,58.8290527 113.173072,59.9711094 M114.151828,59.9711094 C114.151828,58.4720946 113.111311,57.3603951 111.6437,57.3603951 C110.175042,57.3603951 109.135572,58.4720946 109.135572,59.9711094 C109.135572,61.4596562 110.175042,62.5713557 111.6437,62.5713557 C113.111311,62.5713557 114.151828,61.4596562 114.151828,59.9711094" id="path148" transform="translate(111.643700, 59.965875) scale(-1, 1) rotate(-180.000000) translate(-111.643700, -59.965875) "></path>
                                <path d="M118.09721,61.3717251 C117.954845,61.3926611 117.81248,61.4020823 117.679537,61.4020823 C116.873503,61.4020823 116.333355,60.9739419 116.333355,59.8936463 L116.333355,57.4357645 L115.374488,57.4357645 L115.374488,62.3410601 L116.312419,62.3410601 L116.312419,61.4837325 C116.669377,62.2384739 117.281754,62.4227103 117.781077,62.4227103 C117.91402,62.4227103 118.045916,62.4017744 118.09721,62.3923532 L118.09721,61.3717251 Z" id="path152" transform="translate(116.735849, 59.929237) scale(-1, 1) rotate(-180.000000) translate(-116.735849, -59.929237) "></path>
                                <polygon id="path156" transform="translate(123.962419, 58.808117) scale(-1, 1) rotate(-180.000000) translate(-123.962419, -58.808117) " points="121.76519 55.1935232 121.76519 62.4227103 126.159648 62.4227103 126.159648 61.4952473 122.763835 61.4952473 122.763835 59.2718483 125.843515 59.2718483 125.843515 58.3339172 122.763835 58.3339172 122.763835 56.122033 126.159648 56.122033 126.159648 55.1935232"></polygon>
                                <path d="M129.394254,55.888597 C130.271471,55.888597 130.811618,56.6527596 130.811618,57.6629197 C130.811618,58.672033 130.280892,59.3660601 129.403675,59.3660601 C128.527505,59.3660601 127.955953,58.6521438 127.955953,57.6430305 C127.955953,56.6328704 128.477259,55.888597 129.394254,55.888597 L129.394254,55.888597 Z M130.822086,55.9189542 C130.587604,55.4499887 130.067345,55.0417374 129.302136,55.0417374 C127.864882,55.0417374 126.977197,56.1848409 126.977197,57.6430305 C126.977197,59.0300379 127.915128,60.2129197 129.302136,60.2129197 C130.168884,60.2129197 130.63785,59.7847793 130.80115,59.3869961 L130.80115,62.5577473 L131.749549,62.5577473 L131.749549,56.0833015 C131.749549,55.6132892 131.790375,55.256331 131.800843,55.1746808 L130.872333,55.1746808 C130.852444,55.287735 130.822086,55.5421069 130.822086,55.8373039 L130.822086,55.9189542 Z" id="path160" transform="translate(129.389020, 58.799742) scale(-1, 1) rotate(-180.000000) translate(-129.389020, -58.799742) "></path>
                                <path d="M135.113958,57.5153212 C133.971902,57.5153212 133.278921,58.371602 133.278921,59.4843483 L133.278921,62.5734493 L134.236742,62.5734493 L134.236742,59.6267128 C134.236742,58.9536217 134.543453,58.3621808 135.348441,58.3621808 C136.123072,58.3621808 136.510387,58.8719714 136.510387,59.6162448 L136.510387,62.5734493 L137.469254,62.5734493 L137.469254,58.5767744 C137.469254,58.1894591 137.499611,57.8419222 137.520547,57.6681537 L136.602505,57.6681537 C136.581569,57.7812079 136.56168,58.0565158 136.56168,58.2606414 C136.29684,57.7508507 135.684463,57.5153212 135.113958,57.5153212" id="path164" transform="translate(135.399734, 60.044385) scale(-1, 1) rotate(-180.000000) translate(-135.399734, -60.044385) "></path>
                                <path d="M139.619377,59.9711094 C139.619377,58.8499887 140.322825,58.2480798 141.118392,58.2480798 C142.035387,58.2480798 142.372456,58.8698778 142.484463,59.2571931 L143.330276,58.8908138 C143.09684,58.1863187 142.392345,57.3603951 141.118392,57.3603951 C139.690559,57.3603951 138.640621,58.4825626 138.640621,59.9711094 C138.640621,61.5004813 139.710448,62.5713557 141.107924,62.5713557 C142.412234,62.5713557 143.086372,61.7559 143.289451,61.0105798 L142.423749,60.6442005 C142.301274,61.123634 141.944315,61.6847177 141.107924,61.6847177 C140.333293,61.6847177 139.619377,61.113166 139.619377,59.9711094" id="path168" transform="translate(140.985448, 59.965875) scale(-1, 1) rotate(-180.000000) translate(-140.985448, -59.965875) "></path>
                                <path d="M147.290313,59.6172916 L147.290313,59.8413064 L145.791298,59.6172916 C145.383047,59.5555305 145.077382,59.3220946 145.077382,58.8834862 C145.077382,58.5160601 145.383047,58.1685232 145.872948,58.1685232 C146.658047,58.1685232 147.290313,58.547464 147.290313,59.6172916 M145.587173,60.3207399 L146.912419,60.5143975 C147.208663,60.5552227 147.290313,60.7080552 147.290313,60.8818236 C147.290313,61.3612571 146.97418,61.7590404 146.229907,61.7590404 C145.556815,61.7590404 145.178921,61.3403212 145.118207,60.7698163 L144.200165,60.9833631 C144.302751,61.9212941 145.148564,62.5744961 146.208971,62.5744961 C147.677628,62.5744961 148.248133,61.7381044 148.248133,60.7792374 L148.248133,58.3224025 C148.248133,57.8942621 148.290005,57.6388433 148.309894,57.516368 L147.371963,57.516368 C147.351027,57.6388433 147.32067,57.822033 147.32067,58.1789911 C147.106077,57.832501 146.617222,57.3635355 145.740005,57.3635355 C144.740313,57.3635355 144.098626,58.0575626 144.098626,58.8321931 C144.098626,59.7094099 144.740313,60.1982645 145.587173,60.3207399" id="path172" transform="translate(146.204260, 59.969016) scale(-1, 1) rotate(-180.000000) translate(-146.204260, -59.969016) "></path>
                                <path d="M151.016914,60.921602 L152.07732,60.921602 L152.07732,60.0548532 L151.016914,60.0548532 L151.016914,57.5048532 C151.016914,57.0578704 151.200104,56.8328089 151.700473,56.8328089 C151.822948,56.8328089 151.99567,56.852698 152.07732,56.873634 L152.07732,56.0581783 C151.99567,56.0267744 151.750719,55.9660601 151.425165,55.9660601 C150.588774,55.9660601 150.058047,56.4758507 150.058047,57.3635355 L150.058047,60.0548532 L149.120116,60.0548532 L149.120116,60.921602 L149.384956,60.921602 C149.915682,60.921602 150.139697,61.248203 150.139697,61.6763433 L150.139697,62.4708631 L151.016914,62.4708631 L151.016914,60.921602 Z" id="path176" transform="translate(150.598718, 59.218462) scale(-1, 1) rotate(-180.000000) translate(-150.598718, -59.218462) "></path>
                                <path d="M153.353367,57.5153212 L154.301766,57.5153212 L154.301766,62.4206167 L153.355461,62.4206167 L153.355461,57.5132276 L153.353367,57.5153212 Z M153.822333,54.9653212 C154.209648,54.9653212 154.515313,55.272033 154.515313,55.6593483 C154.515313,56.0372424 154.209648,56.3429074 153.822333,56.3429074 C153.444439,56.3429074 153.138774,56.0372424 153.138774,55.6593483 C153.138774,55.272033 153.444439,54.9653212 153.822333,54.9653212 L153.822333,54.9653212 Z" id="path178"></path>
                                <path d="M159.56716,59.9711094 C159.56716,61.102698 158.853244,61.7150749 158.037788,61.7150749 C157.221286,61.7150749 156.508416,61.102698 156.508416,59.9711094 C156.508416,58.8290527 157.221286,58.2166759 158.037788,58.2166759 C158.853244,58.2166759 159.56716,58.8290527 159.56716,59.9711094 M160.545916,59.9711094 C160.545916,58.4720946 159.505399,57.3603951 158.037788,57.3603951 C156.569131,57.3603951 155.528613,58.4720946 155.528613,59.9711094 C155.528613,61.4596562 156.569131,62.5713557 158.037788,62.5713557 C159.505399,62.5713557 160.545916,61.4596562 160.545916,59.9711094" id="path182" transform="translate(158.037265, 59.965875) scale(-1, 1) rotate(-180.000000) translate(-158.037265, -59.965875) "></path>
                                <path d="M162.724303,57.3750502 L161.765436,57.3750502 L161.765436,62.2803458 L162.703367,62.2803458 L162.703367,61.5768975 C163.060325,62.1882276 163.641298,62.4227103 164.21285,62.4227103 C165.385264,62.4227103 165.967283,61.5768975 165.967283,60.4850872 L165.967283,57.3750502 L165.008416,57.3750502 L165.008416,60.3217867 C165.008416,61.0053458 164.722641,61.5559616 163.86636,61.5559616 C163.111618,61.5559616 162.724303,60.9540527 162.724303,60.2097793 L162.724303,57.3750502 Z" id="path186" transform="translate(163.866360, 59.898880) scale(-1, 1) rotate(-180.000000) translate(-163.866360, -59.898880) "></path>
                                <polygon id="path190" transform="translate(19.128841, 7.321356) scale(-1, 1) rotate(-180.000000) translate(-19.128841, -7.321356) " points="15.4708056 0.00423743842 15.4708056 0.00528423645 22.7858302 7.32030887 22.7858302 0.00423743842 30.1039953 0.00423743842 30.1039953 0.00528423645 37.4200667 7.32135567 30.1039953 7.32135567 30.1039953 14.6384739 22.7858302 7.32135567 15.4708056 7.32135567 15.4708056 14.6384739 8.15368739 7.32135567 0.837615961 7.32135567 0.837615961 0.00423743842 8.15368739 7.32030887 8.15368739 0.00423743842"></polygon>
                                <polygon id="path194" transform="translate(19.128130, 25.616768) scale(-1, 1) rotate(-180.000000) translate(-19.128130, -25.616768) " points="30.1032834 29.2758507 22.7861652 36.592969 22.7861652 29.2758507 15.4700938 29.2758507 8.15297557 36.592969 8.15297557 29.2758507 0.836904138 29.2758507 0.836904138 21.9576857 8.15297557 29.2748039 8.15297557 14.6405675 15.4700938 21.9576857 15.4700938 21.9587325 22.7861652 29.2748039 22.7861652 14.6405675 30.1032834 21.9576857 30.1032834 21.9587325 37.4193549 29.2758507"></polygon>
                                <polygon id="path198" transform="translate(4.495547, 25.616768) scale(-1, 1) rotate(-180.000000) translate(-4.495547, -25.616768) " points="8.15410611 29.2758507 0.836987882 21.9576857 8.15410611 21.9576857"></polygon>
                                <polygon id="path202" transform="translate(11.811828, 3.658609) scale(-1, 1) rotate(-180.000000) translate(-11.811828, -3.658609) " points="8.15326867 7.31716847 8.15326867 5.02463054e-05 15.4703869 7.31716847"></polygon>
                                <polygon id="path206" transform="translate(11.812247, 32.929176) scale(-1, 1) rotate(-180.000000) translate(-11.812247, -32.929176) " points="15.4708056 29.2706167 15.4708056 36.587735 8.15368739 29.2706167"></polygon>
                                <polygon id="path210" transform="translate(19.128444, 25.616768) scale(-1, 1) rotate(-180.000000) translate(-19.128444, -25.616768) " points="22.7870027 29.2758507 15.4698844 21.9576857 22.7870027 21.9576857"></polygon>
                                <polygon id="path214" transform="translate(26.444557, 3.658609) scale(-1, 1) rotate(-180.000000) translate(-26.444557, -3.658609) " points="22.7859977 7.31716847 22.7859977 5.02463054e-05 30.103116 7.31716847"></polygon>
                                <polygon id="path218" transform="translate(26.444724, 32.929176) scale(-1, 1) rotate(-180.000000) translate(-26.444724, -32.929176) " points="30.1032834 29.2706167 30.1032834 36.587735 22.7861652 29.2706167"></polygon>
                                <polygon id="path222" transform="translate(19.128255, 14.638474) scale(-1, 1) rotate(-180.000000) translate(-19.128255, -14.638474) " points="30.1023623 14.6384739 22.7873376 14.6384739 22.7873376 21.9555921 15.4691726 14.6384739 8.15414798 14.6384739 8.15414798 21.9555921 0.837029754 14.6384739 8.15310118 14.6384739 15.4702194 7.32135567 15.4702194 14.6384739 22.7862908 14.6384739 30.1034091 7.32135567 30.1034091 14.6384739 37.4194805 14.6384739 37.4194805 21.9555921"></polygon>
                                <polygon id="path226" transform="translate(33.761508, 25.617815) scale(-1, 1) rotate(-180.000000) translate(-33.761508, -25.617815) " points="37.4200667 21.9587325 37.4200667 29.2768975 30.1029485 21.9587325"></polygon>
                            </g>
                        </g>
                    </g>
                </g>
            </g>
        </g>
    </g>
</svg>